# xmcd CD database file
#
# Track frame offsets:
#	150
#	17591
#	40327
#	60471
#	83555
#	106805
#	127913
#	150110
#	173042
#	193638
#	209497
#	230644
#
# Disc length: 3341 seconds
#
# Revision: 0
# Processed by: cddbd v1.5PL3 Copyright (c) Steve Scherf et al.
# Submitted via: CDex 1.51
#
DISCID=8a0d0b0c
DTITLE=Tito Nieves - The Best
DYEAR=1900
DGENRE=Salsa
TTITLE0=I Like It Like That
TTITLE1=Sonámbulo
TTITLE2=El Amor Más Bonito
TTITLE3=I'll Always Love You
TTITLE4=De Mi Enamórate
TTITLE5=Bang Bang
TTITLE6=Almohada
TTITLE7=Te Amo
TTITLE8=Déjame Vivir
TTITLE9=Seguiré Mi Camino
TTITLE10=Le Gusta Que La Vean
TTITLE11=Soy Cantante
EXTD=
EXTT0=
EXTT1=
EXTT2=
EXTT3=
EXTT4=
EXTT5=
EXTT6=
EXTT7=
EXTT8=
EXTT9=
EXTT10=
EXTT11=
PLAYORDER=
